<!DOCTYPE svg PUBLIC "-//W3C//DTD SVG 1.1//EN" "http://www.w3.org/Graphics/SVG/1.1/DTD/svg11.dtd">
<!-- Uploaded to: SVG Repo, www.svgrepo.com, Transformed by: SVG Repo Mixer Tools -->
<svg width="800px" height="800px" viewBox="-0.5 0 25 25" fill="none" xmlns="http://www.w3.org/2000/svg">
<g id="SVGRepo_bgCarrier" stroke-width="0"/>
<g id="SVGRepo_tracerCarrier" stroke-linecap="round" stroke-linejoin="round"/>
<g id="SVGRepo_iconCarrier"> <path d="M12 19.0452V8.79517" stroke="#9B9B9B" stroke-miterlimit="10" stroke-linecap="round" stroke-linejoin="round"/> <path d="M2.5 18.0552V4.10518C2.5 3.76518 2.83 3.52518 3.15 3.62518L11.85 6.37518C11.95 6.40518 12.05 6.40518 12.15 6.37518L20.85 3.62518C21.17 3.52518 21.5 3.76518 21.5 4.10518V18.0552C21.5 18.2752 21.36 18.4652 21.15 18.5352L12.15 21.3752C12.05 21.4052 11.95 21.4052 11.85 21.3752L2.85 18.5352C2.64 18.4652 2.5 18.2652 2.5 18.0552Z" stroke="#9B9B9B" stroke-miterlimit="10" stroke-linecap="round" stroke-linejoin="round"/> <path d="M4.88 7.16516L9.63 8.66516" stroke="#9B9B9B" stroke-miterlimit="10" stroke-linecap="round" stroke-linejoin="round"/> <path d="M4.88 10.1652L8.11001 11.1852" stroke="#9B9B9B" stroke-miterlimit="10" stroke-linecap="round" stroke-linejoin="round"/> <path d="M4.88 13.1652L6.93001 13.8152" stroke="#9B9B9B" stroke-miterlimit="10" stroke-linecap="round" stroke-linejoin="round"/> <path d="M4.88 16.1652L9.63 17.6652" stroke="#9B9B9B" stroke-miterlimit="10" stroke-linecap="round" stroke-linejoin="round"/> <path d="M19.13 7.16516L14.38 8.66516" stroke="#9B9B9B" stroke-miterlimit="10" stroke-linecap="round" stroke-linejoin="round"/> <path d="M17.8 10.5852L14.38 11.6652" stroke="#9B9B9B" stroke-miterlimit="10" stroke-linecap="round" stroke-linejoin="round"/> <path d="M17.07 13.8152L14.38 14.6652" stroke="#9B9B9B" stroke-miterlimit="10" stroke-linecap="round" stroke-linejoin="round"/> <path d="M19.13 16.1652L16.98 16.8452" stroke="#9B9B9B" stroke-miterlimit="10" stroke-linecap="round" stroke-linejoin="round"/> </g>
</svg>